<svg width="507" height="151" viewBox="0 0 507 151" fill="none" xmlns="http://www.w3.org/2000/svg">
<path d="M386.6 100.906L380.38 84.8735H360.132L353.947 100.906H348.004L367.768 50.1818H373.055L392.681 100.906H386.6ZM378.618 79.6559L372.709 63.7268C372.571 63.3121 372.341 62.6326 372.018 61.6881C371.719 60.7436 371.408 59.7646 371.085 58.7511C370.763 57.7375 370.498 56.9197 370.291 56.2978C370.06 57.2422 369.807 58.1867 369.53 59.1312C369.277 60.0526 369.024 60.9164 368.77 61.7227C368.517 62.5059 368.298 63.1739 368.114 63.7268L362.101 79.6559H378.618Z" fill="#262D23"/>
<path d="M325.544 50.3891C332.063 50.3891 336.82 51.6676 339.814 54.2246C342.832 56.7585 344.341 60.3981 344.341 65.1435C344.341 67.2858 343.984 69.3244 343.27 71.2594C342.579 73.1714 341.45 74.8645 339.883 76.3388C338.317 77.79 336.255 78.9418 333.698 79.7941C331.165 80.6234 328.055 81.038 324.369 81.038H318.218V100.906H312.344V50.3891H325.544ZM324.991 55.3994H318.218V75.9932H323.712C326.937 75.9932 329.621 75.6477 331.763 74.9566C333.929 74.2656 335.553 73.1483 336.635 71.6049C337.718 70.0385 338.259 67.9653 338.259 65.3853C338.259 62.0221 337.188 59.5228 335.046 57.8872C332.904 56.2287 329.552 55.3994 324.991 55.3994Z" fill="#262D23"/>
<path d="M301.08 75.5786C301.08 79.4716 300.585 83.0191 299.594 86.2211C298.604 89.4 297.129 92.1412 295.171 94.4448C293.236 96.7253 290.829 98.4875 287.95 99.7315C285.07 100.975 281.73 101.597 277.929 101.597C274.013 101.597 270.592 100.975 267.667 99.7315C264.764 98.4875 262.346 96.7138 260.411 94.4102C258.499 92.1067 257.059 89.3539 256.091 86.1519C255.147 82.95 254.675 79.4025 254.675 75.5095C254.675 70.3495 255.527 65.823 257.232 61.93C258.936 58.037 261.516 55.0078 264.972 52.8424C268.45 50.6771 272.804 49.5944 278.033 49.5944C283.032 49.5944 287.236 50.6655 290.645 52.8079C294.077 54.9502 296.669 57.9678 298.419 61.8609C300.193 65.7309 301.08 70.3034 301.08 75.5786ZM260.86 75.5786C260.86 79.8632 261.47 83.572 262.691 86.7048C263.912 89.8376 265.778 92.2564 268.289 93.961C270.823 95.6657 274.036 96.518 277.929 96.518C281.845 96.518 285.047 95.6657 287.535 93.961C290.046 92.2564 291.9 89.8376 293.098 86.7048C294.296 83.572 294.895 79.8632 294.895 75.5786C294.895 69.0595 293.524 63.9686 290.783 60.306C288.065 56.6203 283.815 54.7774 278.033 54.7774C274.117 54.7774 270.892 55.6182 268.358 57.2998C265.824 58.9814 263.935 61.3771 262.691 64.4869C261.47 67.5737 260.86 71.2709 260.86 75.5786Z" fill="#262D23"/>
<path d="M211.448 74.9221L191.684 50.3891H198.214L217.702 74.853V50.3891H223.369V74.853L242.857 50.3891H249.388L229.623 74.8875L250.114 100.906H243.341L223.369 75.3022V100.906H217.702V75.3022L197.696 100.906H190.924L211.448 74.9221Z" fill="#262D23"/>
<path d="M144 50.3891H149.494V79.5868C149.494 80.6925 149.482 81.9019 149.459 83.2149C149.436 84.5049 149.402 85.7719 149.356 87.0158C149.31 88.2597 149.252 89.3885 149.183 90.402C149.137 91.4156 149.091 92.1988 149.045 92.7517H149.321L177.448 50.3891H183.909V100.906H178.415V72.0541C178.415 70.8333 178.438 69.5433 178.484 68.1842C178.53 66.802 178.576 65.466 178.622 64.176C178.692 62.886 178.761 61.7342 178.83 60.7206C178.899 59.684 178.945 58.8893 178.968 58.3364H178.657L150.496 100.906H144V50.3891Z" fill="#262D23"/>
<path d="M491.377 126.294H493.412V137.108C493.412 137.518 493.408 137.966 493.399 138.452C493.391 138.93 493.378 139.399 493.361 139.86C493.344 140.32 493.323 140.738 493.297 141.114C493.28 141.489 493.263 141.779 493.246 141.984H493.348L503.765 126.294H506.159V145.004H504.124V134.318C504.124 133.866 504.132 133.388 504.149 132.885C504.166 132.373 504.183 131.878 504.2 131.401C504.226 130.923 504.252 130.496 504.277 130.121C504.303 129.737 504.32 129.442 504.328 129.238H504.213L493.783 145.004H491.377V126.294Z" fill="#262D23"/>
<path d="M482.662 145.004H480.474V128.214H474.587V126.294H488.524V128.214H482.662V145.004Z" fill="#262D23"/>
<path d="M468.406 127.945C467.373 127.945 466.443 128.124 465.616 128.483C464.797 128.832 464.097 129.344 463.517 130.018C462.945 130.684 462.506 131.49 462.199 132.437C461.892 133.384 461.738 134.451 461.738 135.637C461.738 137.206 461.981 138.571 462.468 139.732C462.962 140.884 463.696 141.775 464.669 142.406C465.65 143.038 466.874 143.353 468.342 143.353C469.178 143.353 469.963 143.285 470.696 143.149C471.439 143.004 472.16 142.824 472.859 142.611V144.505C472.177 144.761 471.46 144.949 470.709 145.068C469.958 145.196 469.067 145.26 468.035 145.26C466.132 145.26 464.541 144.868 463.261 144.083C461.99 143.289 461.034 142.172 460.394 140.73C459.763 139.288 459.447 137.586 459.447 135.624C459.447 134.207 459.644 132.915 460.036 131.746C460.437 130.569 461.017 129.553 461.777 128.7C462.544 127.847 463.483 127.19 464.592 126.729C465.71 126.26 466.989 126.026 468.431 126.026C469.378 126.026 470.291 126.119 471.17 126.307C472.049 126.495 472.842 126.764 473.55 127.113L472.68 128.956C472.083 128.683 471.426 128.449 470.709 128.252C470.001 128.048 469.233 127.945 468.406 127.945Z" fill="#262D23"/>
<path d="M456.235 135.624C456.235 137.066 456.052 138.379 455.685 139.565C455.318 140.743 454.772 141.758 454.047 142.611C453.33 143.456 452.439 144.109 451.372 144.569C450.306 145.03 449.069 145.26 447.661 145.26C446.21 145.26 444.944 145.03 443.86 144.569C442.785 144.109 441.889 143.452 441.172 142.598C440.464 141.745 439.931 140.726 439.573 139.54C439.223 138.354 439.048 137.04 439.048 135.598C439.048 133.687 439.364 132.011 439.995 130.569C440.626 129.127 441.582 128.005 442.862 127.203C444.15 126.401 445.763 126 447.699 126C449.551 126 451.108 126.397 452.37 127.19C453.642 127.984 454.601 129.101 455.25 130.543C455.907 131.976 456.235 133.67 456.235 135.624ZM441.339 135.624C441.339 137.211 441.565 138.584 442.017 139.745C442.469 140.905 443.16 141.801 444.09 142.432C445.029 143.063 446.219 143.379 447.661 143.379C449.111 143.379 450.297 143.063 451.219 142.432C452.149 141.801 452.835 140.905 453.279 139.745C453.723 138.584 453.944 137.211 453.944 135.624C453.944 133.209 453.437 131.324 452.422 129.967C451.415 128.602 449.841 127.92 447.699 127.92C446.249 127.92 445.054 128.231 444.116 128.854C443.177 129.477 442.478 130.364 442.017 131.516C441.565 132.659 441.339 134.028 441.339 135.624Z" fill="#262D23"/>
<path d="M424.664 145.004L418.38 128.444H418.278C418.312 128.794 418.342 129.221 418.367 129.724C418.393 130.227 418.414 130.778 418.431 131.375C418.448 131.964 418.457 132.565 418.457 133.179V145.004H416.435V126.294H419.66L425.585 141.856H425.675L431.689 126.294H434.889V145.004H432.739V133.026C432.739 132.471 432.747 131.917 432.764 131.362C432.782 130.799 432.803 130.27 432.828 129.775C432.854 129.272 432.88 128.837 432.905 128.47H432.803L426.442 145.004H424.664Z" fill="#262D23"/>
<path d="M396.547 126.294H398.582V137.108C398.582 137.518 398.578 137.966 398.569 138.452C398.561 138.93 398.548 139.399 398.531 139.86C398.514 140.32 398.493 140.738 398.467 141.114C398.45 141.489 398.433 141.779 398.416 141.984H398.518L408.935 126.294H411.329V145.004H409.294V134.318C409.294 133.866 409.302 133.388 409.319 132.885C409.336 132.373 409.353 131.878 409.371 131.401C409.396 130.923 409.422 130.496 409.447 130.121C409.473 129.737 409.49 129.442 409.498 129.238H409.383L398.953 145.004H396.547V126.294Z" fill="#262D23"/>
<path d="M379.552 135.381L372.232 126.294H374.651L381.869 135.355V126.294H383.967V135.355L391.185 126.294H393.604L386.284 135.368L393.873 145.004H391.364L383.967 135.521V145.004H381.869V135.521L374.459 145.004H371.95L379.552 135.381Z" fill="#262D23"/>
<path d="M354.571 126.294H356.606V137.108C356.606 137.518 356.602 137.966 356.593 138.452C356.585 138.93 356.572 139.399 356.555 139.86C356.538 140.32 356.517 140.738 356.491 141.114C356.474 141.489 356.457 141.779 356.44 141.984H356.542L366.959 126.294H369.352V145.004H367.318V134.318C367.318 133.866 367.326 133.388 367.343 132.885C367.36 132.373 367.377 131.878 367.394 131.401C367.42 130.923 367.446 130.496 367.471 130.121C367.497 129.737 367.514 129.442 367.522 129.238H367.407L356.977 145.004H354.571V126.294Z" fill="#262D23"/>
<path d="M337.602 126.294H342.9C345.238 126.294 346.995 126.644 348.172 127.344C349.35 128.043 349.939 129.233 349.939 130.914C349.939 131.639 349.798 132.292 349.516 132.872C349.243 133.444 348.842 133.917 348.313 134.293C347.784 134.668 347.132 134.928 346.355 135.073V135.201C347.174 135.329 347.899 135.564 348.531 135.905C349.162 136.247 349.657 136.724 350.015 137.339C350.374 137.953 350.553 138.734 350.553 139.681C350.553 140.832 350.284 141.805 349.747 142.598C349.218 143.392 348.467 143.993 347.494 144.403C346.522 144.804 345.37 145.004 344.039 145.004H337.602V126.294ZM339.777 134.318H343.361C344.99 134.318 346.116 134.05 346.739 133.512C347.371 132.975 347.686 132.19 347.686 131.157C347.686 130.091 347.311 129.323 346.56 128.854C345.818 128.385 344.632 128.15 343.002 128.15H339.777V134.318ZM339.777 136.148V143.149H343.668C345.331 143.149 346.509 142.824 347.2 142.176C347.891 141.519 348.236 140.636 348.236 139.527C348.236 138.819 348.079 138.213 347.763 137.71C347.456 137.206 346.952 136.822 346.253 136.558C345.562 136.285 344.636 136.148 343.476 136.148H339.777Z" fill="#262D23"/>
<path d="M332.124 126.294V143.059H334.428V149.893H332.342V145.004H319.34V149.893H317.254V143.059H318.687C319.327 141.967 319.924 140.743 320.479 139.386C321.042 138.021 321.541 136.596 321.976 135.112C322.42 133.619 322.778 132.121 323.051 130.62C323.332 129.118 323.512 127.676 323.588 126.294H332.124ZM329.962 128.252H325.508C325.431 129.31 325.261 130.492 324.996 131.797C324.732 133.094 324.39 134.425 323.972 135.79C323.563 137.155 323.102 138.465 322.59 139.719C322.087 140.973 321.554 142.087 320.99 143.059H329.962V128.252Z" fill="#262D23"/>
<path d="M315.513 145.004H305.096V126.294H315.513V128.214H307.271V134.267H315.04V136.161H307.271V143.085H315.513V145.004Z" fill="#262D23"/>
<path d="M299.951 145.004H297.776V136.187H287.947V145.004H285.772V126.294H287.947V134.267H297.776V126.294H299.951V145.004Z" fill="#262D23"/>
<path d="M274.791 135.624C274.791 137.066 274.608 138.379 274.241 139.565C273.874 140.743 273.328 141.758 272.603 142.611C271.886 143.456 270.995 144.109 269.928 144.569C268.862 145.03 267.625 145.26 266.217 145.26C264.766 145.26 263.499 145.03 262.416 144.569C261.341 144.109 260.445 143.452 259.728 142.598C259.02 141.745 258.487 140.726 258.129 139.54C257.779 138.354 257.604 137.04 257.604 135.598C257.604 133.687 257.92 132.011 258.551 130.569C259.182 129.127 260.138 128.005 261.418 127.203C262.706 126.401 264.319 126 266.255 126C268.107 126 269.664 126.397 270.926 127.19C272.198 127.984 273.157 129.101 273.806 130.543C274.463 131.976 274.791 133.67 274.791 135.624ZM259.895 135.624C259.895 137.211 260.121 138.584 260.573 139.745C261.025 140.905 261.716 141.801 262.646 142.432C263.585 143.063 264.775 143.379 266.217 143.379C267.667 143.379 268.853 143.063 269.775 142.432C270.705 141.801 271.391 140.905 271.835 139.745C272.279 138.584 272.5 137.211 272.5 135.624C272.5 133.209 271.993 131.324 270.978 129.967C269.971 128.602 268.397 127.92 266.255 127.92C264.805 127.92 263.61 128.231 262.672 128.854C261.733 129.477 261.034 130.364 260.573 131.516C260.121 132.659 259.895 134.028 259.895 135.624Z" fill="#262D23"/>
<path d="M241.62 126.294H246.918C249.256 126.294 251.013 126.644 252.191 127.344C253.368 128.043 253.957 129.233 253.957 130.914C253.957 131.639 253.816 132.292 253.534 132.872C253.261 133.444 252.86 133.917 252.331 134.293C251.802 134.668 251.15 134.928 250.373 135.073V135.201C251.192 135.329 251.918 135.564 252.549 135.905C253.18 136.247 253.675 136.724 254.034 137.339C254.392 137.953 254.571 138.734 254.571 139.681C254.571 140.832 254.302 141.805 253.765 142.598C253.236 143.392 252.485 143.993 251.512 144.403C250.54 144.804 249.388 145.004 248.057 145.004H241.62V126.294ZM243.795 134.318H247.379C249.008 134.318 250.135 134.05 250.757 133.512C251.389 132.975 251.704 132.19 251.704 131.157C251.704 130.091 251.329 129.323 250.578 128.854C249.836 128.385 248.65 128.15 247.02 128.15H243.795V134.318ZM243.795 136.148V143.149H247.686C249.35 143.149 250.527 142.824 251.218 142.176C251.909 141.519 252.255 140.636 252.255 139.527C252.255 138.819 252.097 138.213 251.781 137.71C251.474 137.206 250.971 136.822 250.271 136.558C249.58 136.285 248.654 136.148 247.494 136.148H243.795Z" fill="#262D23"/>
<path d="M232.93 145.004H230.742V128.214H224.855V126.294H238.792V128.214H232.93V145.004Z" fill="#262D23"/>
<path d="M218.674 127.945C217.642 127.945 216.712 128.124 215.884 128.483C215.065 128.832 214.365 129.344 213.785 130.018C213.214 130.684 212.774 131.49 212.467 132.437C212.16 133.384 212.006 134.451 212.006 135.637C212.006 137.206 212.249 138.571 212.736 139.732C213.231 140.884 213.964 141.775 214.937 142.406C215.918 143.038 217.142 143.353 218.61 143.353C219.446 143.353 220.231 143.285 220.965 143.149C221.707 143.004 222.428 142.824 223.127 142.611V144.505C222.445 144.761 221.728 144.949 220.977 145.068C220.227 145.196 219.335 145.26 218.303 145.26C216.4 145.26 214.809 144.868 213.529 144.083C212.258 143.289 211.302 142.172 210.663 140.73C210.031 139.288 209.716 137.586 209.716 135.624C209.716 134.207 209.912 132.915 210.304 131.746C210.705 130.569 211.285 129.553 212.045 128.7C212.813 127.847 213.751 127.19 214.86 126.729C215.978 126.26 217.258 126.026 218.699 126.026C219.646 126.026 220.559 126.119 221.438 126.307C222.317 126.495 223.11 126.764 223.818 127.113L222.948 128.956C222.351 128.683 221.694 128.449 220.977 128.252C220.269 128.048 219.501 127.945 218.674 127.945Z" fill="#262D23"/>
<path d="M205.531 145.004H203.355V136.187H193.527V145.004H191.351V126.294H193.527V134.267H203.355V126.294H205.531V145.004Z" fill="#262D23"/>
<path d="M187.205 145.004H176.787V126.294H187.205V128.214H178.963V134.267H186.731V136.161H178.963V143.085H187.205V145.004Z" fill="#262D23"/>
<path d="M173.652 126.294V128.24H165.321V145.004H163.145V126.294H173.652Z" fill="#262D23"/>
<path d="M158.295 145.004L155.991 139.066H148.492L146.201 145.004H144L151.32 126.218H153.278L160.547 145.004H158.295ZM155.339 137.134L153.15 131.234C153.099 131.081 153.014 130.829 152.894 130.479C152.783 130.129 152.668 129.767 152.549 129.391C152.429 129.016 152.331 128.713 152.254 128.483C152.169 128.832 152.075 129.182 151.973 129.532C151.879 129.873 151.785 130.193 151.691 130.492C151.597 130.782 151.516 131.029 151.448 131.234L149.221 137.134H155.339Z" fill="#262D23"/>
<path d="M39.1086 93.3056L0 117.816V132.967L39.1086 108.513L73.5933 132.967L85.181 125.781L119.777 150.18V135.084L85.2367 110.518L73.5933 117.76L39.1086 93.3056Z" fill="#262D23"/>
<path d="M39.1086 62.6405L0 87.1506V102.302L39.1086 77.8479L73.5933 102.302L85.181 95.1164L119.777 119.515V104.419L85.2367 79.8533L73.5933 87.0949L39.1086 62.6405Z" fill="#262D23"/>
<path d="M39.023 31.4513L0 55.9614V71.113L39.023 46.6587L73.4323 71.113L84.9946 63.9271L119.515 88.3258V73.2298L85.0502 48.6641L73.4323 55.9057L39.023 31.4513Z" fill="#262D23"/>
<path d="M38.9987 0L0 24.4572V39.5762L38.9987 15.1746L73.3864 39.5762V24.4016L38.9987 0Z" fill="#2A8300"/>
</svg>
